<svg width="60" height="60" viewBox="0 0 60 60" fill="none" xmlns="http://www.w3.org/2000/svg">
<path d="M42.3633 0.14063C42.9492 0.386724 43.3711 0.914068 43.4883 1.53516L45.8203 14.1797L58.4648 16.5C59.0859 16.6172 59.6133 17.0391 59.8594 17.625C60.1055 18.2109 60.0352 18.8789 59.6719 19.4063L52.3711 30L59.6719 40.582C60.0352 41.1094 60.1055 41.7773 59.8594 42.3633C59.6133 42.9492 59.0859 43.3711 58.4648 43.4883L45.8203 45.8203L43.4883 58.4648C43.3711 59.0859 42.9492 59.6133 42.3633 59.8594C41.7773 60.1055 41.1094 60.0352 40.582 59.6719L30 52.3711L19.418 59.6719C18.8906 60.0352 18.2227 60.1055 17.6367 59.8594C17.0508 59.6133 16.6289 59.0859 16.5117 58.4648L14.1797 45.8203L1.53516 43.4883C0.914068 43.3711 0.386724 42.9492 0.14063 42.3633C-0.105463 41.7773 -0.035151 41.1094 0.32813 40.582L7.62891 30L0.32813 19.418C-0.035151 18.8906 -0.105463 18.2227 0.14063 17.6367C0.386724 17.0508 0.914068 16.6289 1.53516 16.5117L14.1797 14.1797L16.5117 1.53516C16.6289 0.914068 17.0508 0.386724 17.6367 0.14063C18.2227 -0.105463 18.8906 -0.035151 19.418 0.32813L30 7.62891L40.582 0.32813C41.1094 -0.035151 41.7773 -0.105463 42.3633 0.14063ZM18.75 30C18.75 27.0163 19.9353 24.1548 22.0451 22.0451C24.1548 19.9353 27.0163 18.75 30 18.75C32.9837 18.75 35.8452 19.9353 37.955 22.0451C40.0647 24.1548 41.25 27.0163 41.25 30C41.25 32.9837 40.0647 35.8452 37.955 37.955C35.8452 40.0647 32.9837 41.25 30 41.25C27.0163 41.25 24.1548 40.0647 22.0451 37.955C19.9353 35.8452 18.75 32.9837 18.75 30ZM45 30C45 26.0218 43.4197 22.2064 40.6066 19.3934C37.7936 16.5804 33.9783 15 30 15C26.0218 15 22.2064 16.5804 19.3934 19.3934C16.5804 22.2064 15 26.0218 15 30C15 33.9783 16.5804 37.7936 19.3934 40.6066C22.2064 43.4197 26.0218 45 30 45C33.9783 45 37.7936 43.4197 40.6066 40.6066C43.4197 37.7936 45 33.9783 45 30Z" fill="#2D6F3E"/>
</svg>
