<svg width="68" height="53" viewBox="0 0 68 53" fill="none" xmlns="http://www.w3.org/2000/svg">
<path d="M21.457 23.8242C25.4062 26.25 28.8281 29.4609 31.5117 33.2578C32.332 34.418 33.082 35.6367 33.75 36.8906C34.418 35.625 35.168 34.418 35.9883 33.2578C38.6719 29.4609 42.0938 26.25 46.043 23.8242C51.2812 20.6016 57.4336 18.75 63.9844 18.75H65.1445C66.4453 18.75 67.5 19.8047 67.5 21.1055C67.5 38.4492 53.4492 52.5 36.1055 52.5H33.75H31.3945C14.0508 52.5 0 38.4492 0 21.1055C0 19.8047 1.05469 18.75 2.35547 18.75H3.51562C10.0664 18.75 16.2188 20.6016 21.457 23.8242ZM35.332 0.65625C37.1719 2.63672 42.4922 9.07031 45.2227 19.9453C40.7695 22.4766 36.8555 25.8984 33.75 29.9766C30.6445 25.8984 26.7305 22.4883 22.2773 19.9453C24.9961 9.07031 30.3164 2.63672 32.168 0.65625C32.5781 0.222656 33.1523 0 33.75 0C34.3477 0 34.9219 0.222656 35.332 0.65625Z" fill="#2D6F3E"/>
</svg>
