<svg width="45" height="60" viewBox="0 0 45 60" fill="none" xmlns="http://www.w3.org/2000/svg">
<path d="M22.5 60C10.0781 60 0 49.9219 0 37.5C0 26.8125 15.2578 6.76172 19.5234 1.37109C20.2266 0.492187 21.2695 0 22.3945 0H22.6055C23.7305 0 24.7734 0.492187 25.4766 1.37109C29.7422 6.76172 45 26.8125 45 37.5C45 49.9219 34.9219 60 22.5 60ZM11.25 39.375C11.25 38.3438 10.4062 37.5 9.375 37.5C8.34375 37.5 7.5 38.3438 7.5 39.375C7.5 46.6289 13.3711 52.5 20.625 52.5C21.6562 52.5 22.5 51.6562 22.5 50.625C22.5 49.5938 21.6562 48.75 20.625 48.75C15.4453 48.75 11.25 44.5547 11.25 39.375Z" fill="#2D6F3E"/>
</svg>
